# xmcd CD database file
#
# Track frame offsets:
#	150
#	13367
#	32620
#	56285
#	75890
#	98527
#	122267
#	127185
#	148820
#	174092
#	197375
#	221620
#	243110
#	262185
#
# Disc length: 4440 seconds
#
# Revision: 0
# Processed by: cddbd v1.5.1PL0 Copyright (c) Steve Scherf et al.
# Submitted via: CDex 1.51
#
DISCID=b011560e
DTITLE=K DUB SHINE - 現在時刻
DYEAR=2003
DGENRE=Hip-Hop
TTITLE0=プロローグ
TTITLE1=ラストエンペラー
TTITLE2=機能停止Remix（宣戦布告Version）
TTITLE3=一目瞭然
TTITLE4=パラレル・ワールド
TTITLE5=理由なき犯行（中学生日記）
TTITLE6=インタールード
TTITLE7=組織犯罪
TTITLE8=長すぎる冬眠
TTITLE9=独り事
TTITLE10=戦争知らない子供達
TTITLE11=陽はまた昇る
TTITLE12=エピローグ
TTITLE13=cccd
EXTD=YEAR: 2003
EXTT0=
EXTT1=
EXTT2=
EXTT3=
EXTT4=
EXTT5=
EXTT6=
EXTT7=
EXTT8=
EXTT9=
EXTT10=
EXTT11=
EXTT12=
EXTT13=
PLAYORDER=
